<?xml version="1.0" encoding="UTF-8" standalone="no"?>
<svg
   xmlns:dc="http://purl.org/dc/elements/1.1/"
   xmlns:cc="http://creativecommons.org/ns#"
   xmlns:rdf="http://www.w3.org/1999/02/22-rdf-syntax-ns#"
   xmlns:svg="http://www.w3.org/2000/svg"
   xmlns="http://www.w3.org/2000/svg"
   xmlns:sodipodi="http://sodipodi.sourceforge.net/DTD/sodipodi-0.dtd"
   xmlns:inkscape="http://www.inkscape.org/namespaces/inkscape"
   version="1.1"
   width="45"
   height="45"
   id="svg14"
   sodipodi:docname="bB.svg"
   inkscape:version="1.0.1 (3bc2e813f5, 2020-09-07)">
  <metadata
     id="metadata20">
    <rdf:RDF>
      <cc:Work
         rdf:about="">
        <dc:format>image/svg+xml</dc:format>
        <dc:type
           rdf:resource="http://purl.org/dc/dcmitype/StillImage" />
      </cc:Work>
    </rdf:RDF>
  </metadata>
  <defs
     id="defs18" />
  <sodipodi:namedview
     pagecolor="#ffffff"
     bordercolor="#666666"
     borderopacity="1"
     objecttolerance="10"
     gridtolerance="10"
     guidetolerance="10"
     inkscape:pageopacity="0"
     inkscape:pageshadow="2"
     inkscape:window-width="1920"
     inkscape:window-height="1017"
     id="namedview16"
     showgrid="true"
     inkscape:snap-bbox="true"
     inkscape:bbox-nodes="false"
     inkscape:zoom="13.356462"
     inkscape:cx="11.780474"
     inkscape:cy="19.613525"
     inkscape:window-x="-8"
     inkscape:window-y="-8"
     inkscape:window-maximized="1"
     inkscape:current-layer="svg14"
     inkscape:document-rotation="0">
    <inkscape:grid
       type="xygrid"
       id="grid24" />
  </sodipodi:namedview>
  <g
     style="opacity:1;fill:#000000;fill-rule:evenodd;fill-opacity:1;stroke:#000000;stroke-width:1.5;stroke-linecap:round;stroke-linejoin:round;stroke-miterlimit:4;stroke-dasharray:none;stroke-opacity:1"
     id="g12">
    <g
       style="fill:#000000;stroke:#000000;stroke-linecap:butt"
       id="g8">
      <path
         d="M 9,36 C 12.39,35.03 19.11,36.43 22.5,34 C 25.89,36.43 32.61,35.03 36,36 C 36,36 37.65,36.54 39,38 C 38.32,38.97 37.35,38.99 36,38.5 C 32.61,37.53 25.89,38.96 22.5,37.5 C 19.11,38.96 12.39,37.53 9,38.5 C 7.646,38.99 6.677,38.97 6,38 C 7.354,36.06 9,36 9,36 z"
         id="path2"
         style="fill:#000000" />
      <path
         d="M 15,32 C 17.5,34.5 27.5,34.5 30,32 C 30.5,30.5 30,30 30,30 C 30,27.5 27.5,26 27.5,26 C 33,24.5 33.5,14.5 22.5,10.5 C 11.5,14.5 12,24.5 17.5,26 C 17.5,26 15,27.5 15,30 C 15,30 14.5,30.5 15,32 z"
         id="path4"
         style="fill:#000000" />
      <path
         d="M 25 8 A 2.5 2.5 0 1 1  20,8 A 2.5 2.5 0 1 1  25 8 z"
         id="path6"
         style="fill:#000000" />
    </g>
    <path
       d="M 17.5,26 L 27.5,26 M 15,30 L 30,30 M 22.5,15.5 L 22.5,20.5 M 20,18 L 25,18"
       style="fill:#000000;stroke:#ffffff;stroke-linejoin:miter"
       id="path10" />
  </g>
  <ellipse
     style="fill:#ffffff;stroke-width:0.780951"
     id="path29"
     cx="22.5"
     cy="18"
     rx="3.5"
     ry="4" />
  <rect
     style="fill:#1a1a1a"
     id="rect31"
     width="1"
     height="6.2470589"
     x="22"
     y="15" />
  <rect
     style="fill:#1a1a1a"
     id="rect36"
     width="5"
     height="1"
     x="20"
     y="19" />
  <ellipse
     style="fill:#ffffff"
     id="path38"
     cx="23.951876"
     cy="17.911104"
     rx="1.5"
     ry="0.5"
     transform="rotate(15)" />
  <ellipse
     style="fill:#ffffff"
     id="path42"
     cx="19.514788"
     cy="29.557962"
     rx="1.5"
     ry="0.5"
     transform="rotate(-15)" />
  <path
     sodipodi:type="star"
     style="fill:#000000"
     id="path44"
     sodipodi:sides="3"
     sodipodi:cx="18.133975"
     sodipodi:cy="25.5"
     sodipodi:r1="1"
     sodipodi:r2="0.5"
     sodipodi:arg1="1.5707963"
     sodipodi:arg2="2.6179939"
     inkscape:flatsided="false"
     inkscape:rounded="0"
     inkscape:randomized="0"
     d="M 18.133974,26.5 17.700961,25.75 17.267949,25 l 0.866025,0 0.866025,0 -0.433012,0.75 z"
     inkscape:transform-center-y="0.25" />
  <path
     sodipodi:type="star"
     style="fill:#000000"
     id="path44-5"
     sodipodi:sides="3"
     sodipodi:cx="19.866025"
     sodipodi:cy="25.5"
     sodipodi:r1="1"
     sodipodi:r2="0.5"
     sodipodi:arg1="1.5707963"
     sodipodi:arg2="2.6179939"
     inkscape:flatsided="false"
     inkscape:rounded="0"
     inkscape:randomized="0"
     d="M 19.866026,26.5 19.433013,25.75 19.000001,25 l 0.866025,0 0.866025,0 -0.433012,0.75 z"
     inkscape:transform-center-y="0.25" />
  <path
     sodipodi:type="star"
     style="fill:#000000"
     id="path44-5-9"
     sodipodi:sides="3"
     sodipodi:cx="21.598077"
     sodipodi:cy="25.5"
     sodipodi:r1="1"
     sodipodi:r2="0.5"
     sodipodi:arg1="1.5707963"
     sodipodi:arg2="2.6179939"
     inkscape:flatsided="false"
     inkscape:rounded="0"
     inkscape:randomized="0"
     d="M 21.598078,26.5 21.165065,25.75 20.732052,25 l 0.866026,0 0.866025,0 -0.433013,0.75 z"
     inkscape:transform-center-y="0.25" />
  <path
     sodipodi:type="star"
     style="fill:#000000"
     id="path44-5-0"
     sodipodi:sides="3"
     sodipodi:cx="23.330129"
     sodipodi:cy="25.5"
     sodipodi:r1="1"
     sodipodi:r2="0.5"
     sodipodi:arg1="1.5707963"
     sodipodi:arg2="2.6179939"
     inkscape:flatsided="false"
     inkscape:rounded="0"
     inkscape:randomized="0"
     d="M 23.33013,26.5 22.897117,25.75 22.464104,25 l 0.866026,0 0.866025,0 -0.433013,0.75 z"
     inkscape:transform-center-y="0.25" />
  <path
     sodipodi:type="star"
     style="fill:#000000"
     id="path44-5-7"
     sodipodi:sides="3"
     sodipodi:cx="25.06218"
     sodipodi:cy="25.5"
     sodipodi:r1="1"
     sodipodi:r2="0.5"
     sodipodi:arg1="1.5707963"
     sodipodi:arg2="2.6179939"
     inkscape:flatsided="false"
     inkscape:rounded="0"
     inkscape:randomized="0"
     d="M 25.06218,26.5 24.629167,25.75 24.196154,25 l 0.866026,0 0.866025,0 -0.433013,0.75 z"
     inkscape:transform-center-y="0.25" />
  <path
     sodipodi:type="star"
     style="fill:#000000"
     id="path44-5-91"
     sodipodi:sides="3"
     sodipodi:cx="26.79423"
     sodipodi:cy="25.5"
     sodipodi:r1="1"
     sodipodi:r2="0.5"
     sodipodi:arg1="1.5707963"
     sodipodi:arg2="2.6179939"
     inkscape:flatsided="false"
     inkscape:rounded="0"
     inkscape:randomized="0"
     d="M 26.79423,26.5 26.361217,25.75 25.928204,25 l 0.866026,0 0.866025,0 -0.433013,0.75 z"
     inkscape:transform-center-y="0.25" />
  <path
     sodipodi:type="star"
     style="fill:#000000"
     id="path44-5-5"
     sodipodi:sides="3"
     sodipodi:cx="15.60398"
     sodipodi:cy="29.5"
     sodipodi:r1="1"
     sodipodi:r2="0.5"
     sodipodi:arg1="1.5707963"
     sodipodi:arg2="2.6179939"
     inkscape:flatsided="false"
     inkscape:rounded="0"
     inkscape:randomized="0"
     d="M 15.60398,30.5 15.170967,29.75 14.737955,29 l 0.866025,0 0.866025,0 -0.433012,0.75 z"
     inkscape:transform-center-y="0.25" />
  <path
     sodipodi:type="star"
     style="fill:#000000"
     id="path44-5-01"
     sodipodi:sides="3"
     sodipodi:cx="17.336031"
     sodipodi:cy="29.5"
     sodipodi:r1="1"
     sodipodi:r2="0.5"
     sodipodi:arg1="1.5707963"
     sodipodi:arg2="2.6179939"
     inkscape:flatsided="false"
     inkscape:rounded="0"
     inkscape:randomized="0"
     d="M 17.336031,30.5 16.903018,29.75 16.470006,29 l 0.866025,0 0.866025,0 -0.433012,0.75 z"
     inkscape:transform-center-y="0.25" />
  <path
     sodipodi:type="star"
     style="fill:#000000"
     id="path44-5-8"
     sodipodi:sides="3"
     sodipodi:cx="19.068082"
     sodipodi:cy="29.5"
     sodipodi:r1="1"
     sodipodi:r2="0.5"
     sodipodi:arg1="1.5707963"
     sodipodi:arg2="2.6179939"
     inkscape:flatsided="false"
     inkscape:rounded="0"
     inkscape:randomized="0"
     d="M 19.068083,30.5 18.63507,29.75 18.202057,29 l 0.866026,0 0.866025,0 -0.433012,0.75 z"
     inkscape:transform-center-y="0.25" />
  <path
     sodipodi:type="star"
     style="fill:#000000"
     id="path44-5-80"
     sodipodi:sides="3"
     sodipodi:cx="20.800134"
     sodipodi:cy="29.5"
     sodipodi:r1="1"
     sodipodi:r2="0.5"
     sodipodi:arg1="1.5707963"
     sodipodi:arg2="2.6179939"
     inkscape:flatsided="false"
     inkscape:rounded="0"
     inkscape:randomized="0"
     d="M 20.800135,30.5 20.367122,29.75 19.934109,29 l 0.866026,0 0.866025,0 -0.433013,0.75 z"
     inkscape:transform-center-y="0.25" />
  <path
     sodipodi:type="star"
     style="fill:#000000"
     id="path44-5-1"
     sodipodi:sides="3"
     sodipodi:cx="22.532185"
     sodipodi:cy="29.5"
     sodipodi:r1="1"
     sodipodi:r2="0.5"
     sodipodi:arg1="1.5707963"
     sodipodi:arg2="2.6179939"
     inkscape:flatsided="false"
     inkscape:rounded="0"
     inkscape:randomized="0"
     d="M 22.532185,30.5 22.099172,29.75 21.666159,29 l 0.866026,0 0.866025,0 -0.433013,0.75 z"
     inkscape:transform-center-y="0.25" />
  <path
     sodipodi:type="star"
     style="fill:#000000"
     id="path44-5-72"
     sodipodi:sides="3"
     sodipodi:cx="24.264235"
     sodipodi:cy="29.5"
     sodipodi:r1="1"
     sodipodi:r2="0.5"
     sodipodi:arg1="1.5707963"
     sodipodi:arg2="2.6179939"
     inkscape:flatsided="false"
     inkscape:rounded="0"
     inkscape:randomized="0"
     d="M 24.264235,30.5 23.831222,29.75 23.398209,29 l 0.866026,0 0.866025,0 -0.433013,0.75 z"
     inkscape:transform-center-y="0.25" />
  <path
     sodipodi:type="star"
     style="fill:#000000"
     id="path44-5-85"
     sodipodi:sides="3"
     sodipodi:cx="25.996285"
     sodipodi:cy="29.5"
     sodipodi:r1="1"
     sodipodi:r2="0.5"
     sodipodi:arg1="1.5707963"
     sodipodi:arg2="2.6179939"
     inkscape:flatsided="false"
     inkscape:rounded="0"
     inkscape:randomized="0"
     d="M 25.996285,30.5 25.563272,29.75 25.130259,29 l 0.866025,0 0.866026,0 -0.433013,0.75 z"
     inkscape:transform-center-y="0.25" />
  <path
     sodipodi:type="star"
     style="fill:#000000"
     id="path44-5-57"
     sodipodi:sides="3"
     sodipodi:cx="27.728335"
     sodipodi:cy="29.5"
     sodipodi:r1="1"
     sodipodi:r2="0.5"
     sodipodi:arg1="1.5707963"
     sodipodi:arg2="2.6179939"
     inkscape:flatsided="false"
     inkscape:rounded="0"
     inkscape:randomized="0"
     d="M 27.728334,30.5 27.295322,29.75 26.862309,29 l 0.866025,0 0.866026,0 -0.433013,0.75 z"
     inkscape:transform-center-y="0.25" />
  <path
     sodipodi:type="star"
     style="fill:#000000"
     id="path44-5-00"
     sodipodi:sides="3"
     sodipodi:cx="29.460385"
     sodipodi:cy="29.5"
     sodipodi:r1="1"
     sodipodi:r2="0.5"
     sodipodi:arg1="1.5707963"
     sodipodi:arg2="2.6179939"
     inkscape:flatsided="false"
     inkscape:rounded="0"
     inkscape:randomized="0"
     d="M 29.460384,30.5 29.027372,29.75 28.594359,29 l 0.866025,0 0.866026,0 -0.433013,0.75 z"
     inkscape:transform-center-y="0.25" />
  <path
     sodipodi:type="star"
     style="fill:#000000"
     id="path44-6-5"
     sodipodi:sides="3"
     sodipodi:cx="9.866025"
     sodipodi:cy="10.5"
     sodipodi:r1="1"
     sodipodi:r2="0.5"
     sodipodi:arg1="1.5707963"
     sodipodi:arg2="2.6179939"
     inkscape:flatsided="false"
     inkscape:rounded="0"
     inkscape:randomized="0"
     d="M 9.866025,11.5 9.4330123,10.75 8.9999996,10 l 0.8660254,0 0.866025,0 -0.433012,0.75 z"
     transform="matrix(0,-2.3094011,3.3333333,0,-10.333333,30.784609)"
     inkscape:transform-center-x="-0.83333296" />
  <path
     sodipodi:type="star"
     style="fill:#000000"
     id="path44-6-5-6"
     sodipodi:sides="3"
     sodipodi:cx="9.866025"
     sodipodi:cy="10.5"
     sodipodi:r1="1"
     sodipodi:r2="0.5"
     sodipodi:arg1="1.5707963"
     sodipodi:arg2="2.6179939"
     inkscape:flatsided="false"
     inkscape:rounded="0"
     inkscape:randomized="0"
     d="M 9.866025,11.5 9.4330123,10.75 8.9999996,10 l 0.8660254,0 0.866025,0 -0.433012,0.75 z"
     transform="matrix(0,-2.3094011,-3.3333333,0,55.333333,30.784609)"
     inkscape:transform-center-x="0.83333293" />
</svg>
