<?xml version="1.0" encoding="UTF-8" standalone="no"?>
<svg
   xmlns:dc="http://purl.org/dc/elements/1.1/"
   xmlns:cc="http://creativecommons.org/ns#"
   xmlns:rdf="http://www.w3.org/1999/02/22-rdf-syntax-ns#"
   xmlns:svg="http://www.w3.org/2000/svg"
   xmlns="http://www.w3.org/2000/svg"
   xmlns:sodipodi="http://sodipodi.sourceforge.net/DTD/sodipodi-0.dtd"
   xmlns:inkscape="http://www.inkscape.org/namespaces/inkscape"
   version="1.1"
   width="45"
   height="45"
   id="svg14"
   sodipodi:docname="bN.svg"
   inkscape:version="1.0.1 (3bc2e813f5, 2020-09-07)">
  <metadata
     id="metadata20">
    <rdf:RDF>
      <cc:Work
         rdf:about="">
        <dc:format>image/svg+xml</dc:format>
        <dc:type
           rdf:resource="http://purl.org/dc/dcmitype/StillImage" />
      </cc:Work>
    </rdf:RDF>
  </metadata>
  <defs
     id="defs18" />
  <sodipodi:namedview
     pagecolor="#ffffff"
     bordercolor="#666666"
     borderopacity="1"
     objecttolerance="10"
     gridtolerance="10"
     guidetolerance="10"
     inkscape:pageopacity="0"
     inkscape:pageshadow="2"
     inkscape:window-width="1920"
     inkscape:window-height="1017"
     id="namedview16"
     showgrid="true"
     inkscape:zoom="37.777777"
     inkscape:cx="21.709173"
     inkscape:cy="15.821653"
     inkscape:window-x="-8"
     inkscape:window-y="-8"
     inkscape:window-maximized="1"
     inkscape:current-layer="svg14"
     inkscape:snap-bbox="true"
     inkscape:bbox-nodes="false"
     inkscape:document-rotation="0"
     inkscape:snap-bbox-midpoints="true">
    <inkscape:grid
       type="xygrid"
       id="grid32" />
  </sodipodi:namedview>
  <g
     style="opacity:1; fill:none; fill-opacity:1; fill-rule:evenodd; stroke:#000000; stroke-width:1.5; stroke-linecap:round;stroke-linejoin:round;stroke-miterlimit:4; stroke-dasharray:none; stroke-opacity:1;"
     id="g12">
    <path
       d="M 22,10 C 32.5,11 38.5,18 38,39 L 15,39 C 15,30 25,32.5 23,18"
       style="fill:#000000; stroke:#000000;"
       id="path2" />
    <path
       d="M 24,18 C 24.38,20.91 18.45,25.37 16,27 C 13,29 13.18,31.34 11,31 C 9.958,30.06 12.41,27.96 11,28 C 10,28 11.19,29.23 10,30 C 9,30 5.997,31 6,26 C 6,24 12,14 12,14 C 12,14 13.89,12.1 14,10.5 C 13.27,9.506 13.5,8.5 13.5,7.5 C 14.5,6.5 16.5,10 16.5,10 L 18.5,10 C 18.5,10 19.28,8.008 21,7 C 22,7 22,10 22,10"
       style="fill:#000000; stroke:#000000;"
       id="path4" />
    <path
       d="M 9.5 25.5 A 0.5 0.5 0 1 1 8.5,25.5 A 0.5 0.5 0 1 1 9.5 25.5 z"
       style="fill:#ffffff; stroke:#ffffff;"
       id="path6" />
    <path
       d="M 15 15.5 A 0.5 1.5 0 1 1  14,15.5 A 0.5 1.5 0 1 1  15 15.5 z"
       transform="matrix(0.866,0.5,-0.5,0.866,9.693,-5.173)"
       style="fill:#ffffff; stroke:#ffffff;"
       id="path8" />
    <path
       d="M 24.55,10.4 L 24.1,11.85 L 24.6,12 C 27.75,13 30.25,14.49 32.5,18.75 C 34.75,23.01 35.75,29.06 35.25,39 L 35.2,39.5 L 37.45,39.5 L 37.5,39 C 38,28.94 36.62,22.15 34.25,17.66 C 31.88,13.17 28.46,11.02 25.06,10.5 L 24.55,10.4 z "
       style="fill:#ffffff; stroke:none;"
       id="path10" />
  </g>
  <path
     style="fill:#000000;stroke-width:0.0560707"
     d="m 13.394083,17.575025 c -0.348074,-0.161079 -0.588741,-0.571384 -0.588741,-1.003726 0,-0.525546 0.325356,-1.384359 0.773916,-2.042838 0.250805,-0.368176 0.80002,-0.912171 1.050009,-1.040029 0.690287,-0.353049 1.393058,0.01219 1.517197,0.788517 0.129203,0.807984 -0.765941,2.528596 -1.622328,3.118382 -0.264973,0.182484 -0.376338,0.224023 -0.641251,0.239187 -0.193145,0.01106 -0.387458,-0.01259 -0.488802,-0.05949 z"
     id="path22" />
  <path
     style="fill:#000000;stroke-width:0.0187175"
     d="m 16.023322,33.405623 c 0.124745,-0.174312 0.446225,-0.565954 0.681574,-0.830324 0.333121,-0.374199 0.8238,-0.871317 1.652252,-1.673932 0.659778,-0.639204 1.165383,-1.159506 1.512665,-1.55664 1.284095,-1.468426 2.035272,-3.001483 2.399899,-4.897896 0.09486,-0.493372 0.157958,-0.992696 0.218064,-1.725687 l 0.01221,-0.148908 -0.449508,0.458713 c -0.865913,0.883645 -1.824347,1.735028 -2.970356,2.638585 -0.854038,0.673356 -1.543427,1.176262 -2.652435,1.934938 -1.004018,0.686851 -1.517973,1.204885 -2.498793,2.518624 -0.607085,0.813146 -0.963424,1.161017 -1.427985,1.394046 -0.367163,0.184173 -0.636963,0.243719 -1.104334,0.243731 -0.533301,1.1e-5 -0.710009,-0.04748 -0.919939,-0.247233 -0.192717,-0.183376 -0.32404,-0.391505 -0.407931,-0.646522 -0.04951,-0.150506 0.0095,-0.141456 -0.567132,-0.08699 -0.5358102,0.05061 -1.1188688,0.04322 -1.4634981,-0.01856 C 7.3515533,30.638506 6.7435318,30.303688 6.3204425,29.815717 5.6931176,29.092192 5.3631698,28.08599 5.2765468,26.632276 c -0.046446,-0.779455 -0.00464,-1.104233 0.2341396,-1.818932 0.5722772,-1.712908 2.3417308,-5.163533 4.9461666,-9.645557 0.821027,-1.412921 0.936565,-1.597827 1.128626,-1.806241 0.821321,-0.891254 1.404178,-1.812786 1.608193,-2.542652 l 0.0358,-0.12809 -0.129979,-0.264978 C 12.830409,9.8772556 12.725739,9.3702328 12.725584,8.6145842 c -3.8e-5,-0.1709985 0.0053,-0.3499849 0.01184,-0.3977476 l 0.0119,-0.086841 h 1.690016 1.690016 l 0.190372,0.257366 c 0.104705,0.1415514 0.280099,0.3937993 0.389765,0.5605509 l 0.199394,0.3031849 0.561526,9.566e-4 0.561526,9.567e-4 0.08291,-0.1544012 C 18.23198,8.8804769 18.436463,8.5466616 18.590719,8.321763 l 0.13165,-0.1919421 1.91877,0.00477 1.91877,0.00477 0.01563,0.07487 c 0.03285,0.1573118 0.09,0.5842429 0.111892,0.8358213 0.01738,0.1997463 0.02964,0.2657835 0.05143,0.2769965 0.01574,0.0081 0.11284,0.024872 0.215786,0.037277 0.792609,0.095506 1.896775,0.309667 2.706518,0.5249491 2.389517,0.6352882 4.351371,1.6468712 6.102177,3.1464422 0.327437,0.280451 1.052381,1.000886 1.354362,1.345941 3.118784,3.563626 4.890518,8.951974 5.455947,16.593093 0.04324,0.584339 0.105954,1.680473 0.124494,2.175913 l 0.01278,0.341595 H 38.156868 37.60281 l -0.0092,-0.06083 c -0.0051,-0.03346 -0.0141,-0.275616 -0.02005,-0.538129 -0.0173,-0.762328 -0.07663,-1.862616 -0.150912,-2.798271 -0.77176,-9.721572 -4.020691,-16.201432 -9.376808,-18.70165 -0.792062,-0.369733 -1.726771,-0.670652 -2.57609,-0.829343 -0.168526,-0.03149 -0.443496,-0.08363 -0.611044,-0.115876 -0.16755,-0.03224 -0.308474,-0.05478 -0.313166,-0.05009 -0.01096,0.01095 -0.443866,1.40154 -0.446853,1.435369 -0.0015,0.01695 0.07892,0.0498 0.241081,0.09847 3.240301,0.97254 5.239637,2.37693 7.004945,4.92047 0.640011,0.922157 1.3174,2.153043 1.787184,3.247492 1.252798,2.918636 1.952158,6.504631 2.166504,11.108856 0.03044,0.653828 0.05657,1.545997 0.0566,1.932585 v 0.350954 H 25.65814 15.961295 l 0.06199,-0.08663 z M 9.305557,26.717531 c 0.3664692,-0.09373 0.6417881,-0.312337 0.811361,-0.644242 0.226853,-0.444018 0.169307,-0.980787 -0.1477612,-1.378278 -0.3084221,-0.38665 -0.8881569,-0.54954 -1.3706735,-0.385122 -0.3734108,0.127241 -0.6389948,0.38736 -0.7829272,0.766818 -0.05403,0.142443 -0.057622,0.167833 -0.058552,0.4138 -0.00109,0.289049 0.028819,0.419221 0.1429812,0.622259 0.2776858,0.493863 0.8598361,0.744341 1.4055717,0.604765 z m 4.919557,-9.20935 c 0.215039,-0.07812 0.417219,-0.213906 0.640884,-0.430422 0.638987,-0.618562 1.176241,-1.654468 1.245875,-2.402236 0.04683,-0.502831 -0.105838,-0.887926 -0.436992,-1.102316 -0.298504,-0.193252 -0.69522,-0.198458 -1.061163,-0.01392 -0.469285,0.236645 -1.024129,0.902832 -1.39423,1.674016 -0.43576,0.907999 -0.453019,1.653512 -0.04784,2.066306 0.114364,0.116512 0.321348,0.232329 0.471028,0.263562 0.157757,0.03292 0.40462,0.0096 0.582435,-0.05499 z"
     id="path24" />
  <path
     style="fill:#000000;stroke-width:0.0187175"
     d="m 16.023322,33.405623 c 0.121794,-0.170189 0.444167,-0.563601 0.680559,-0.83053 0.24347,-0.274922 0.91237,-0.950497 2.002013,-2.02199 0.655376,-0.644459 0.977307,-0.984969 1.333364,-1.410308 1.165606,-1.392414 1.854761,-2.827556 2.212225,-4.606883 0.102552,-0.510471 0.184116,-1.135304 0.235624,-1.805033 l 0.01214,-0.157891 -0.44914,0.458337 c -1.426423,1.455632 -3.293118,2.984842 -5.372497,4.401187 -0.692962,0.472004 -0.920541,0.646998 -1.319136,1.014332 -0.402382,0.370824 -0.708053,0.726163 -1.313141,1.526512 -0.229601,0.303692 -0.498623,0.646595 -0.597826,0.762007 -0.480838,0.559404 -0.958414,0.865757 -1.545562,0.991444 -0.121311,0.02597 -0.241342,0.03406 -0.505373,0.03407 -0.533301,1.1e-5 -0.710009,-0.04748 -0.919939,-0.247233 -0.192696,-0.183355 -0.328901,-0.39899 -0.409392,-0.648138 -0.04791,-0.148297 0.0106,-0.139226 -0.5527548,-0.08568 -0.5362824,0.05097 -1.1555072,0.04298 -1.4870703,-0.01918 C 7.339021,30.631567 6.7410209,30.300553 6.3203492,29.815717 5.6931596,29.092862 5.3632028,28.086544 5.2765468,26.632276 5.2385988,25.99543 5.2579448,25.718843 5.3714195,25.275893 5.779426,23.683236 7.6675494,19.946302 10.625228,14.877666 c 0.677606,-1.161228 0.775775,-1.317191 0.942774,-1.497798 0.809479,-0.875447 1.409039,-1.81377 1.616596,-2.530006 l 0.04564,-0.157506 -0.130362,-0.265754 C 12.828211,9.8727803 12.725455,9.370473 12.725789,8.5979336 c 7.5e-5,-0.1801563 0.0054,-0.3591427 0.01174,-0.3977476 l 0.0116,-0.070191 h 1.690111 1.690111 l 0.190372,0.257366 c 0.104705,0.1415514 0.280099,0.3937993 0.389765,0.5605509 l 0.199394,0.3031849 0.564203,9.75e-4 c 0.520632,8.997e-4 0.565165,-0.00155 0.576669,-0.031781 0.03155,-0.082888 0.296578,-0.5288209 0.472788,-0.7954952 l 0.194795,-0.294801 h 1.916336 c 1.053985,0 1.920148,0.00632 1.924809,0.014038 0.02432,0.040292 0.118174,0.7119083 0.137545,0.9842483 0.0065,0.091868 0.02216,0.17575 0.03515,0.1887434 0.01286,0.012863 0.11052,0.033772 0.217016,0.046465 0.106496,0.012693 0.357876,0.04837 0.558621,0.079283 4.540422,0.6991747 7.923064,2.6173487 10.372993,5.8821507 2.531838,3.373956 4.056901,8.26227 4.628434,14.835607 0.08062,0.927278 0.158736,2.157188 0.189904,2.990126 l 0.01278,0.341595 h -0.552723 -0.552721 l -0.01129,-0.04212 c -0.0062,-0.02316 -0.01143,-0.1474 -0.0116,-0.276083 -7.67e-4,-0.574065 -0.08417,-2.142735 -0.169161,-3.181981 -0.406184,-4.966632 -1.446381,-9.058442 -3.116662,-12.259984 -1.754512,-3.362991 -4.221586,-5.6652 -7.213226,-6.731193 -0.505095,-0.179978 -1.129463,-0.349404 -1.611389,-0.43726 -0.118388,-0.02158 -0.37351,-0.06947 -0.566937,-0.106418 -0.193427,-0.03695 -0.354866,-0.064 -0.358752,-0.06011 -0.0039,0.0039 -0.105061,0.322926 -0.224831,0.708975 -0.119771,0.386049 -0.221213,0.712251 -0.225426,0.724893 -0.005,0.01506 0.06788,0.04614 0.211525,0.09017 2.168022,0.664521 3.608568,1.405166 4.917286,2.52818 1.697355,1.456504 3.244443,3.830793 4.267315,6.548975 1.145536,3.044153 1.770952,7.01865 1.8563,11.796725 l 0.01245,0.697228 H 25.66121 15.961327 Z M 9.3045827,26.71778 c 0.7703203,-0.197014 1.1688003,-1.041231 0.8291043,-1.756534 -0.4461014,-0.939362 -1.7950337,-0.95525 -2.2556812,-0.02657 -0.2603667,0.524909 -0.1219279,1.181927 0.3234837,1.535223 0.3178937,0.252151 0.7269687,0.344075 1.1030932,0.247878 z M 14.03386,17.56399 c 0.145186,-0.02754 0.366484,-0.122111 0.515235,-0.220196 0.181686,-0.119804 0.536379,-0.47726 0.718643,-0.724242 0.646335,-0.875835 0.973857,-1.875646 0.809658,-2.471611 -0.12479,-0.452932 -0.46971,-0.720884 -0.927956,-0.720884 -0.184119,0 -0.330615,0.03536 -0.510648,0.123262 -0.860249,0.420013 -1.824426,2.083911 -1.757649,3.033207 0.02193,0.311747 0.112868,0.532994 0.295186,0.718165 0.219165,0.222594 0.543607,0.321833 0.857531,0.262299 z"
     id="path26" />
  <path
     style="fill:#000000;stroke-width:0.0187175"
     d="m 16.023322,33.405623 c 0.119421,-0.166872 0.442351,-0.561561 0.679531,-0.83053 0.13163,-0.149273 0.839291,-0.86943 1.572579,-1.600349 1.310513,-1.30628 1.557884,-1.567684 1.95388,-2.064709 1.347917,-1.691807 2.035721,-3.520921 2.238215,-5.952203 0.0157,-0.188498 0.02854,-0.350065 0.02854,-0.359038 0,-0.009 -0.267426,0.251188 -0.594281,0.578136 -0.326855,0.326947 -0.741079,0.727415 -0.920498,0.889929 -1.265709,1.146448 -2.737775,2.297829 -4.303727,3.366174 -0.533539,0.363998 -0.731741,0.508746 -0.971617,0.709576 -0.59563,0.498676 -0.94276,0.881616 -1.664081,1.835748 -0.211945,0.280351 -0.464865,0.604282 -0.562045,0.719846 -0.65636,0.780523 -1.3269,1.103513 -2.21282,1.065881 -0.44813,-0.01903 -0.597199,-0.06666 -0.793626,-0.253553 -0.186695,-0.177633 -0.373928,-0.480571 -0.414219,-0.670196 -0.02304,-0.108453 -0.02226,-0.108362 -0.5347782,-0.06209 -0.5887521,0.05316 -1.1533794,0.04654 -1.494658,-0.01753 C 6.739113,30.518436 5.881299,29.640318 5.5011261,28.172274 5.3758801,27.688636 5.3120359,27.241259 5.2741925,26.58208 5.235413,25.906595 5.2737727,25.565873 5.453931,24.985589 c 0.5256084,-1.692965 2.3535404,-5.271417 5.115488,-10.014336 0.708096,-1.215969 0.82853,-1.406445 1.0237,-1.619066 0.792723,-0.863605 1.387688,-1.799083 1.591478,-2.502319 l 0.04564,-0.1575 -0.102954,-0.205285 c -0.18973,-0.378312 -0.29369,-0.701075 -0.355275,-1.1030131 -0.03359,-0.2192307 -0.05909,-0.9818093 -0.03838,-1.1475931 l 0.0133,-0.1064815 h 1.691213 1.691213 l 0.190372,0.257366 c 0.104705,0.1415514 0.280099,0.3937993 0.389765,0.5605509 l 0.199394,0.3031849 0.564203,9.75e-4 c 0.520632,8.997e-4 0.565165,-0.00155 0.576669,-0.031781 0.03155,-0.082899 0.296589,-0.5288374 0.472846,-0.7955829 l 0.194853,-0.2948887 1.921295,0.00477 1.921295,0.00477 0.01401,0.065511 c 0.02808,0.1313358 0.09211,0.5960269 0.116839,0.8478719 0.01394,0.1420482 0.02955,0.2624648 0.03468,0.2675925 0.0051,0.00513 0.21038,0.038427 0.456116,0.073999 0.858326,0.1242479 1.585598,0.2659381 2.299829,0.4480623 6.373468,1.6251918 10.259982,6.1446708 12.080338,14.0477668 0.602259,2.614713 1.013733,5.967321 1.136559,9.260499 l 0.01274,0.341595 h -0.553015 c -0.487012,0 -0.554372,-0.0035 -0.564377,-0.02961 -0.0063,-0.01628 -0.01139,-0.13631 -0.01142,-0.266724 -1.87e-4,-0.420501 -0.05184,-1.538286 -0.11318,-2.445787 C 37.07386,24.902418 35.815917,20.1769 33.73965,16.74006 c -1.69812,-2.810894 -3.937044,-4.750956 -6.597219,-5.71659 -0.526848,-0.191245 -1.161735,-0.365989 -1.670272,-0.45972 -0.118388,-0.02182 -0.373821,-0.06952 -0.56763,-0.106 -0.193807,-0.03648 -0.355219,-0.06346 -0.358693,-0.05995 -0.01773,0.01789 -0.441082,1.409722 -0.436298,1.434378 0.0031,0.01587 0.03929,0.03928 0.08047,0.05201 1.239091,0.383138 2.01416,0.683125 2.826348,1.093925 2.274646,1.150506 3.915707,2.875454 5.445969,5.724357 1.436091,2.673582 2.327749,6.101655 2.695487,10.363082 0.111158,1.288126 0.197204,3.06946 0.197204,4.082551 v 0.344146 H 25.658172 15.961327 Z M 9.2721348,26.725876 c 0.1592667,-0.03332 0.3973919,-0.14852 0.5240909,-0.253536 0.4493503,-0.372449 0.5860213,-1.006145 0.3288233,-1.524642 -0.4665647,-0.940571 -1.8079892,-0.93252 -2.2572746,0.01355 -0.2492015,0.524747 -0.095675,1.183973 0.3551987,1.52518 0.305466,0.231168 0.6800976,0.31667 1.0491617,0.23945 z m 4.7911512,-9.171817 c 0.345625,-0.07321 0.703382,-0.328112 1.059759,-0.755072 0.587165,-0.703459 0.989181,-1.628071 0.992483,-2.282656 0.0018,-0.35747 -0.0888,-0.610691 -0.292481,-0.817399 -0.180931,-0.183623 -0.398447,-0.271246 -0.674354,-0.271653 -0.182432,-2.69e-4 -0.329743,0.03508 -0.507267,0.121738 -0.452505,0.22088 -0.966669,0.805511 -1.34135,1.525183 -0.514771,0.988752 -0.558553,1.79371 -0.121131,2.227081 0.239537,0.237318 0.545058,0.324647 0.884341,0.252778 z"
     id="path28" />
  <path
     style="fill:#000000;stroke-width:0.0374351"
     d="m 14.766064,39.685046 c -0.260692,-0.09293 -0.441995,-0.315548 -0.488881,-0.600278 -0.03082,-0.187158 0.03618,-1.218366 0.112919,-1.737911 0.230386,-1.55983 0.885916,-3.017195 1.954531,-4.345287 0.157383,-0.195598 0.994881,-1.071579 1.861105,-1.946623 0.866225,-0.875045 1.72422,-1.773667 1.906656,-1.996938 1.350671,-1.652997 2.06743,-3.416915 2.322132,-5.714686 0.09714,-0.876379 0.174558,-0.876824 -0.720037,0.0041 -1.33908,1.318669 -2.844456,2.551508 -4.651307,3.809224 -1.716134,1.19457 -1.970678,1.434647 -3.11963,2.942316 -0.745827,0.978684 -1.132491,1.318431 -1.738054,1.527159 -0.56824,0.195865 -1.328149,0.178837 -1.633061,-0.03659 -0.170091,-0.120175 -0.406111,-0.44674 -0.476064,-0.658699 -0.02649,-0.08026 -0.07133,-0.154811 -0.099648,-0.165678 -0.02832,-0.01087 -0.3240454,-0.0024 -0.6571677,0.01873 -1.0138561,0.06442 -1.5156518,-0.01007 -2.1592321,-0.32056 C 6.8723906,30.314795 6.7769928,30.243791 6.4690586,29.933963 6.2734604,29.737162 6.0573202,29.480461 5.9887472,29.363516 5.5490459,28.61365 5.3308123,27.712114 5.2835809,26.450434 c -0.018837,-0.503185 -0.011242,-0.676263 0.040971,-0.933735 0.3121259,-1.539144 2.1334054,-5.189056 5.3130291,-10.64751 0.584575,-1.003538 0.774415,-1.296937 1.029428,-1.59099 0.780365,-0.899829 1.281973,-1.688264 1.498136,-2.354794 0.07487,-0.230851 0.07496,-0.236839 0.0057,-0.355633 -0.119499,-0.204865 -0.291617,-0.6746083 -0.361016,-0.985281 -0.05421,-0.2426785 -0.06522,-0.4591357 -0.06111,-1.2009656 0.003,-0.5344646 0.02222,-0.9687963 0.04703,-1.0609335 0.08575,-0.3184498 0.500625,-0.6392593 0.909647,-0.7034003 0.875731,-0.1373281 1.838104,0.6069433 2.979518,2.3042729 l 0.232861,0.3462744 h 0.55874 0.55874 l 0.09097,-0.1778166 c 0.46089,-0.9008839 1.411225,-1.9900019 2.192301,-2.5124551 0.400784,-0.2680797 0.546518,-0.3205785 0.813436,-0.29303 0.279591,0.028856 0.517961,0.1535464 0.761274,0.3982186 0.394071,0.3962725 0.642076,1.0969835 0.767376,2.1681421 0.02999,0.2563488 0.0589,0.4700866 0.06426,0.474973 0.0054,0.00489 0.262428,0.045724 0.571267,0.090751 7.488783,1.0918111 11.978023,5.4681981 14.07473,13.7209081 0.67571,2.659619 1.100234,5.735425 1.2917,9.358767 0.10665,2.01826 0.126275,6.319566 0.03057,6.700233 -0.04881,0.19416 -0.299195,0.446316 -0.497967,0.501498 -0.108159,0.03003 -3.354906,0.04114 -11.717052,0.0401 -9.72541,-0.0012 -11.590462,-0.0096 -11.712037,-0.05298 z m 22.713987,-0.292861 c 0.05042,-0.268759 0.09934,-1.633943 0.121686,-3.39581 0.06303,-4.969627 -0.354537,-9.192861 -1.261019,-12.75377 -0.872188,-3.426194 -2.133877,-6.148618 -3.839507,-8.284736 -0.469417,-0.587896 -1.486978,-1.61952 -1.998841,-2.026468 -1.275584,-1.01413 -2.585234,-1.707264 -4.012958,-2.123861 -0.473557,-0.138181 -1.548347,-0.36668 -1.825257,-0.388048 l -0.129368,-0.01 -0.216563,0.692549 c -0.11911,0.380902 -0.211747,0.707463 -0.205859,0.72569 0.0059,0.01823 0.306143,0.130394 0.667235,0.249258 3.135156,1.032029 5.065443,2.486765 6.78191,5.111099 1.704419,2.605914 2.755596,5.617816 3.31755,9.505658 0.386481,2.673845 0.544564,5.934138 0.455598,9.396201 -0.04294,1.671155 -0.09665,2.924694 -0.139144,3.247492 l -0.02341,0.177816 h 1.142426 1.142426 z M 9.4528246,26.668956 c 0.295555,-0.110581 0.6056364,-0.420662 0.7162174,-0.716217 0.229164,-0.612497 -0.03546,-1.289647 -0.61739,-1.579848 -0.1888015,-0.09415 -0.2624512,-0.109343 -0.537009,-0.110763 -0.2667036,-0.0014 -0.3517944,0.01411 -0.5257991,0.09573 -0.296355,0.139002 -0.465618,0.303379 -0.6058425,0.588354 -0.1092725,0.222071 -0.1224224,0.283092 -0.1223337,0.567682 8.61e-5,0.279 0.013959,0.346241 0.1109562,0.537848 0.2954379,0.583601 0.9686685,0.846395 1.5812007,0.617217 z m 4.9207924,-9.231201 c 0.599633,-0.295198 1.315713,-1.273105 1.624031,-2.217841 0.128882,-0.394915 0.149079,-0.972496 0.04224,-1.208115 -0.32899,-0.725577 -1.18704,-0.777409 -1.881057,-0.113627 -0.473357,0.452734 -0.943239,1.216406 -1.158762,1.883268 -0.142569,0.441128 -0.151491,0.939666 -0.02195,1.226271 0.24204,0.535489 0.819699,0.713505 1.395489,0.430044 z"
     id="path30" />
  <circle
     style="fill:#c83737"
     id="path34"
     cx="16.5"
     cy="16.5"
     r="2.5" />
  <circle
     style="fill:#ffffff;stroke-width:1.5"
     id="path36"
     cx="16"
     cy="17"
     r="1.5" />
</svg>
