<?xml version="1.0" encoding="UTF-8" standalone="no"?>
<svg
   xmlns:dc="http://purl.org/dc/elements/1.1/"
   xmlns:cc="http://creativecommons.org/ns#"
   xmlns:rdf="http://www.w3.org/1999/02/22-rdf-syntax-ns#"
   xmlns:svg="http://www.w3.org/2000/svg"
   xmlns="http://www.w3.org/2000/svg"
   xmlns:sodipodi="http://sodipodi.sourceforge.net/DTD/sodipodi-0.dtd"
   xmlns:inkscape="http://www.inkscape.org/namespaces/inkscape"
   version="1.1"
   width="45"
   height="45"
   id="svg12"
   sodipodi:docname="wN.svg"
   inkscape:version="1.0.1 (3bc2e813f5, 2020-09-07)">
  <metadata
     id="metadata18">
    <rdf:RDF>
      <cc:Work
         rdf:about="">
        <dc:format>image/svg+xml</dc:format>
        <dc:type
           rdf:resource="http://purl.org/dc/dcmitype/StillImage" />
      </cc:Work>
    </rdf:RDF>
  </metadata>
  <defs
     id="defs16">
    <clipPath
       clipPathUnits="userSpaceOnUse"
       id="clipPath399">
      <path
         id="path401"
         style="fill:#ff0000;fill-opacity:1;fill-rule:nonzero;stroke:none"
         d="m 14.25,9.25 v 4.125 c 0.03145,-0.02577 0.07117,-0.03741 0.107422,-0.05664 0.03304,-0.0044 0.06661,-0.0077 0.09961,-0.01367 0.06367,-0.04287 0.12721,-0.08361 0.203125,-0.08594 0.04581,-0.0014 0.09232,0.0069 0.138672,0.02539 0.117186,0.04671 0.152615,0.09784 0.203125,0.171875 0.08642,-0.07431 0.205713,-0.105633 0.341797,-0.03906 0.06933,-0.11782 0.168351,-0.18436 0.271484,-0.183594 0.172604,0.0013 0.340187,0.172368 0.347657,0.503907 0.143564,0.04158 0.270898,0.197229 0.283203,0.488281 0.0096,0.2281 0.0349,0.456882 0.0293,0.685547 -0.0016,0.06414 -0.01392,0.129479 -0.01172,0.193359 7e-5,0.01307 -0.0027,0.02628 0,0.03906 0.0015,0.0069 0.0077,0.01168 0.01172,0.01758 0.0043,0.01329 0.01147,0.02526 0.01367,0.03906 0.02325,0.143309 0.02428,0.268865 0.01758,0.41211 -0.0126,0.122474 -0.005,0.246309 -0.0039,0.36914 0.01326,0.188529 -0.06812,0.354792 -0.130859,0.525391 -0.0664,0.207505 -0.237773,0.343873 -0.390625,0.486328 -0.02127,0.02022 -0.04502,0.03856 -0.06445,0.06055 -0.02954,0.03344 -0.02942,0.03221 -0.01367,0.0332 -0.04876,0.05277 -0.09426,0.108853 -0.146484,0.158203 -0.04627,0.04372 -0.141953,0.097 -0.195313,0.128906 -0.03906,0.02306 -0.0811,0.0441 -0.11914,0.07031 0.02358,-0.02608 0.09094,-0.107103 0.06445,-0.08398 -0.05536,0.04831 -0.09967,0.106997 -0.150391,0.160157 -0.09255,0.07777 -0.212157,0.103717 -0.326172,0.132812 -0.0031,0.0023 -0.0052,0.004 -0.0078,0.0059 0.0017,-0.0014 0.0022,-0.0045 0.0039,-0.0059 -0.0085,0.0022 -0.01693,0.0056 -0.02539,0.0078 -0.0066,0.0017 0.0115,0.0012 0.01953,-0.002 -0.0097,0.0079 -0.01949,0.01567 -0.0293,0.02344 -0.01053,0.0043 -0.02067,0.0095 -0.03125,0.01367 -0.003,0.0018 -0.0038,0.0028 -0.0059,0.0039 -0.009,0.0048 -0.03657,0.01404 -0.02734,0.0098 0.01087,-0.0051 0.02207,-0.0092 0.0332,-0.01367 0.01428,-0.0088 0.03743,-0.02424 0.02734,-0.01953 -0.03264,0.01527 -0.06449,0.03 -0.0957,0.04883 0.0013,-8.1e-5 0.0026,9.2e-5 0.0039,0 0.05413,-0.04134 -0.02724,0.01145 -0.05664,0.03125 -0.04313,0.05618 -0.06776,0.07887 -0.208984,0.123047 -0.0013,3.9e-4 -0.0026,-3.79e-4 -0.0039,0 -0.0123,0.0073 -0.0247,0.01442 -0.03711,0.02148 -0.03721,0.0069 -0.07359,0.01673 -0.111328,0.01953 -0.01271,9.41e-4 -0.01737,-0.0018 -0.02734,-0.002 V 39.75 H 38.779297 V 9.25 Z m 0.576172,8.363281 c 0.0012,-3.1e-4 0.0027,3.1e-4 0.0039,0 0.05794,-0.04268 0.191466,-0.151133 0.142578,-0.115234 -0.0501,0.03679 -0.09816,0.07613 -0.146484,0.115234 z m -0.142578,-4.28125 c -0.0086,0.0013 -0.0056,7.18e-4 -0.01367,0.002 0.01525,0.006 0.0313,0.0092 0.04687,0.01367 0.01147,0.0033 -0.02138,-0.01743 -0.0332,-0.01563 z m -0.34961,0.150391 c 0.02457,-0.01454 -0.0413,0.0044 -0.08398,0.01172 v 0.01758 c 0.02827,-0.0095 0.05866,-0.01432 0.08398,-0.0293 z m 0.201172,4.294922 c -0.0239,0.01209 -0.04718,0.02555 -0.07031,0.03906 0.0039,-5.53e-4 0.0079,7.74e-4 0.01172,0 0.02293,-0.0046 0.07947,-0.04962 0.05859,-0.03906 z" />
    </clipPath>
    <clipPath
       clipPathUnits="userSpaceOnUse"
       id="clipPath431">
      <path
         id="path433"
         style="fill:#ff0000;fill-opacity:1;fill-rule:nonzero;stroke:none"
         d="M 5.25,6.25 V 31.779297 H 24.769531 V 6.25 Z m 10.365234,6.943359 c 0.172604,0.0013 0.340187,0.172368 0.347657,0.503907 0.143564,0.04158 0.270898,0.197229 0.283203,0.488281 0.0096,0.2281 0.0349,0.456882 0.0293,0.685547 -0.0016,0.06414 -0.01392,0.129479 -0.01172,0.193359 7e-5,0.01307 -0.0027,0.02628 0,0.03906 0.0015,0.0069 0.0077,0.01168 0.01172,0.01758 0.0043,0.01329 0.01147,0.02526 0.01367,0.03906 0.02325,0.143309 0.02428,0.268865 0.01758,0.41211 -0.0126,0.122474 -0.005,0.246309 -0.0039,0.36914 0.01326,0.188529 -0.06812,0.354792 -0.130859,0.525391 -0.0664,0.207505 -0.237773,0.343873 -0.390625,0.486328 -0.02127,0.02022 -0.04502,0.03856 -0.06445,0.06055 -0.02954,0.03344 -0.02942,0.03221 -0.01367,0.0332 -0.04876,0.05277 -0.09426,0.108853 -0.146484,0.158203 -0.04627,0.04372 -0.141953,0.097 -0.195313,0.128906 -0.03906,0.02306 -0.0811,0.0441 -0.11914,0.07031 0.02358,-0.02608 0.09094,-0.107106 0.06445,-0.08398 -0.05536,0.04831 -0.09967,0.106997 -0.150391,0.160157 -0.09255,0.07777 -0.212157,0.103717 -0.326172,0.132812 -0.0031,0.0023 -0.0052,0.004 -0.0078,0.0059 0.0017,-0.0014 0.0022,-0.0045 0.0039,-0.0059 -0.0085,0.0022 -0.01693,0.0056 -0.02539,0.0078 -0.0066,0.0017 0.0115,0.0012 0.01953,-0.002 -0.0097,0.0079 -0.01949,0.01567 -0.0293,0.02344 -0.01053,0.0043 -0.02067,0.0095 -0.03125,0.01367 -0.003,0.0018 -0.0038,0.0028 -0.0059,0.0039 -0.009,0.0048 -0.03657,0.01401 -0.02734,0.0098 0.01087,-0.0051 0.02207,-0.0092 0.0332,-0.01367 0.01428,-0.0088 0.03743,-0.02424 0.02734,-0.01953 -0.03264,0.01527 -0.06449,0.03 -0.0957,0.04883 0.0013,-8.1e-5 0.0026,9.2e-5 0.0039,0 0.05413,-0.04134 -0.02724,0.01145 -0.05664,0.03125 -0.04313,0.05618 -0.06776,0.07887 -0.208984,0.123047 -0.0013,3.9e-4 -0.0026,-3.79e-4 -0.0039,0 -0.0123,0.0073 -0.0247,0.01442 -0.03711,0.02148 -0.03721,0.0069 -0.07359,0.01673 -0.111328,0.01953 -0.05551,0.0041 -0.0796,-0.0036 -0.119141,-0.01172 0.0058,0.0012 0.01178,0.0026 0.01758,0.0039 0.01278,0.0028 -0.0929,-0.01137 -0.03906,-0.0059 0.0085,0.0015 0.01436,3.5e-4 0.02148,0.002 -0.04629,-0.0099 -0.09429,-0.01956 -0.140625,-0.0293 -0.08381,-0.02558 -0.1744,-0.03349 -0.263672,-0.03906 -0.0055,0.0034 -0.0039,0.0023 -0.0098,0.0059 -0.0196,-0.0011 -0.03904,-0.0029 -0.05859,-0.0039 7.49e-4,0.01997 -0.0011,0.04068 -0.002,0.06055 -0.009,0.216544 -0.08666,0.206286 -0.179688,0.136719 -0.06861,0.04807 -0.138455,0.09057 -0.117187,0.04297 0.01543,-0.03453 0.04624,-0.0588 0.07226,-0.08594 -0.06428,-0.05898 -0.132826,-0.135602 -0.199218,-0.205078 -0.06259,-0.009 -0.1097,-0.02887 -0.15625,-0.07813 -0.01355,-0.0042 -0.02772,-0.0067 -0.04102,-0.01172 -0.02101,-0.0079 -0.03896,-0.02298 -0.05664,-0.03711 -0.01842,0.02859 -0.0309,0.08093 -0.03125,0.167969 -3e-4,0.07421 -0.0015,8.87e-4 0.0098,0.08594 0.0011,0.0082 -0.004,-0.01544 -0.0059,-0.02344 -0.0192,-0.0828 -0.0093,-0.04054 -0.01758,-0.185547 0.01388,-0.01577 0.03007,-0.02981 0.04492,-0.04492 -0.0018,-0.0015 -0.004,-0.0025 -0.0059,-0.0039 -0.142057,-0.112839 -0.180817,-0.239881 -0.216797,-0.417969 -0.01356,0.03343 0.08139,0.175616 0.06836,0.128906 -0.02654,-0.09516 -0.08708,-0.178737 -0.115234,-0.273437 -0.0026,-0.0088 0.0017,-0.01827 0.002,-0.02734 -0.03458,-0.01073 -0.06899,-0.02214 -0.103515,-0.0332 -0.0011,-0.04603 -0.01043,-0.09114 -0.0039,-0.136719 0.0038,-0.02702 0.03733,-0.07299 0.06055,-0.128906 -0.0088,-0.01661 -0.01815,-0.0238 -0.02734,-0.08984 -0.03288,-0.03096 -0.0041,-0.06174 0.0098,-0.0918 -0.0031,0.001 6.67e-4,-0.01352 -0.002,-0.03711 -0.002,-0.04138 2.2e-5,-0.0836 0,-0.125 -2.31e-4,-0.06555 -2.9e-5,-0.129763 0,-0.195313 0.07082,-0.353348 -0.0024,-0.02989 0.0625,-0.242187 0.0017,-0.0056 -0.008,0.0081 -0.0098,0.01367 -0.0033,0.01045 -0.0068,0.0207 -0.0098,0.03125 0.0113,-0.07798 0.01573,-0.156062 0.03516,-0.232422 0.0085,-0.0333 0.03177,-0.06094 0.04687,-0.0918 0.02011,-0.04105 -0.0094,-0.0072 0.02148,-0.05859 0.05725,-0.09535 0.07994,-0.109429 0.107422,-0.138672 -0.0073,-0.05784 -0.01428,-0.115405 -0.01758,-0.173828 -0.0026,-0.04764 -0.03272,-0.111651 0.002,-0.144531 0.135344,-0.128717 0.31147,-0.207397 0.46875,-0.308594 0.004,-0.0054 0.0045,-0.0052 0.0078,-0.0098 -0.482056,0.08807 -0.02555,-0.126743 0.05078,-0.121094 0.0041,3.07e-4 0.0076,0.0035 0.01172,0.0039 0.02362,-0.06124 0.04849,-0.12216 0.07617,-0.181641 0.01974,-0.04242 0.04911,-0.08061 0.07422,-0.121093 -0.0016,-0.03615 -0.0098,-0.07287 0,-0.107422 0.01943,-0.06868 0.08113,-0.119278 0.119141,-0.179688 0.0013,-0.0019 -0.0056,0.0013 -0.0078,0.002 0.0043,-0.0058 0.0094,-0.0098 0.01367,-0.01562 -0.0085,-0.01254 0.01483,-0.04793 0.01953,-0.05859 0.04505,-0.102541 0.09461,-0.147037 0.175781,-0.216797 -0.03466,0.03358 -0.06653,0.06862 -0.103516,0.09961 -0.0044,0.0036 -8.88e-4,-0.01063 0.002,-0.01563 0.02828,-0.05263 0.05634,-0.10679 0.08984,-0.15625 0.01587,-0.02344 0.04338,-0.03176 0.0625,-0.05078 0.008,-0.04039 0.01211,-0.08242 0.03906,-0.113281 0.0193,-0.02211 0.05137,-0.02616 0.07813,-0.03711 9.5e-4,-0.0027 5.62e-4,-0.0044 0.002,-0.0059 0.05033,-0.06202 0.09512,-0.129944 0.154297,-0.183594 0.03215,-0.02915 0.07494,-0.04021 0.113281,-0.06055 0.03304,-0.0044 0.06661,-0.0077 0.09961,-0.01367 0.06367,-0.04287 0.12721,-0.08361 0.203125,-0.08594 0.04581,-0.0014 0.09232,0.0069 0.138672,0.02539 0.117186,0.04671 0.152615,0.09784 0.203125,0.171875 0.08642,-0.07431 0.205713,-0.105636 0.341797,-0.03906 0.06933,-0.11782 0.168351,-0.18436 0.271484,-0.183594 z m -0.789062,4.419922 c 0.0012,-3.1e-4 0.0027,3.1e-4 0.0039,0 0.05794,-0.04268 0.191466,-0.151133 0.142578,-0.115234 -0.0501,0.03679 -0.09816,0.07613 -0.146484,0.115234 z m -0.142578,-4.28125 c -0.0086,0.0013 -0.0056,6.71e-4 -0.01367,0.002 0.01525,0.006 0.0313,0.0092 0.04687,0.01367 0.01147,0.0033 -0.02138,-0.01743 -0.0332,-0.01563 z m -0.34961,0.150391 c 0.04682,-0.0277 -0.109476,0.0017 -0.160156,0.02148 -0.0389,0.0026 -0.05194,0.03781 -0.07422,0.06055 0.07682,-0.02764 0.163691,-0.04021 0.234375,-0.08203 z m -0.392578,0.380859 c -0.0051,0.0084 -0.01275,0.01492 -0.01758,0.02344 -0.01,0.01759 -1.62e-4,0.07989 0.0059,0.06055 0.0081,-0.02627 0.0086,-0.05551 0.01172,-0.08399 z m -0.34375,0.628907 c -0.0021,0.0058 -0.0038,0.01176 -0.0059,0.01758 0.002,0.01567 0.0052,0.06266 0.0059,0.04687 9.35e-4,-0.02152 0.0015,-0.04266 0,-0.06445 z m -0.101562,0.21289 c -0.0078,0.0071 -0.01614,0.01359 -0.02344,0.02148 0.0014,2.45e-4 0.0025,0.0017 0.0039,0.002 0.0073,-0.0075 0.0084,-0.012 0.01953,-0.02344 z m 1.039062,3.072266 c -0.0239,0.01209 -0.04718,0.02555 -0.07031,0.03906 0.0039,-5.53e-4 0.0079,7.74e-4 0.01172,0 0.02293,-0.0046 0.07947,-0.04962 0.05859,-0.03906 z" />
    </clipPath>
    <clipPath
       clipPathUnits="userSpaceOnUse"
       id="clipPath441">
      <path
         id="path443"
         style="fill:#ff0000;fill-opacity:1;fill-rule:nonzero;stroke:none;stroke-width:1.00002"
         d="m 12.053127,14.519828 1.05864,1.833565 c 0.0013,-0.02523 0.0097,-0.06191 0.01221,-0.08824 -0.03524,-0.04644 -0.07007,-0.09281 -0.102142,-0.141752 -0.02607,-0.03996 -0.08416,-0.08034 -0.07054,-0.126169 0.05285,-0.179149 0.166041,-0.335356 0.251652,-0.501639 7.64e-4,-0.0067 0.0013,-0.0068 0.0019,-0.01239 -0.373441,0.317311 -0.0855,-0.09699 -0.01657,-0.130263 0.0037,-0.0018 0.0083,-7.69e-4 0.0121,-0.0025 -0.01017,-0.06484 -0.01908,-0.130043 -0.02486,-0.195394 -0.0041,-0.0466 0.0022,-0.09437 0.0037,-0.141983 -0.01946,-0.03051 -0.04492,-0.05821 -0.05371,-0.09303 -0.01751,-0.0692 0.01062,-0.143861 0.01333,-0.21519 1.76e-4,-0.0023 -0.0042,0.0039 -0.0058,0.0056 8.24e-4,-0.0072 0.0032,-0.01319 0.004,-0.02036 -0.01363,-0.0066 -0.01114,-0.04894 -0.01238,-0.06051 -0.01226,-0.111333 0.0084,-0.174647 0.04383,-0.275649 -0.01323,0.04641 -0.02331,0.09269 -0.03984,0.138027 -0.002,0.0053 -0.006,-0.0088 -0.0061,-0.01454 -0.0018,-0.05972 -0.0046,-0.120663 -3.23e-4,-0.180241 0.002,-0.02824 0.02169,-0.0492 0.02874,-0.07523 -0.01327,-0.03898 -0.03069,-0.07743 -0.02282,-0.117636 0.0057,-0.0288 0.03141,-0.04833 0.04911,-0.07121 -5.41e-4,-0.0028 -0.0016,-0.0039 -0.0012,-0.0061 0.0092,-0.05791 0.01902,-0.1159 0.03072,-0.173356 z m 2.62856,-1.517645 c 0.06427,0.0472 0.125599,0.115216 0.182136,0.206079 0.06279,-0.01595 0.130236,-0.01366 0.204063,0.0175 l -0.193368,-0.334913 z m -1.334296,0.833531 c 0.0267,-0.0474 -0.09396,0.05621 -0.12796,0.09868 -0.03239,0.0217 -0.02608,0.05872 -0.034,0.08955 0.05271,-0.06235 0.121656,-0.116672 0.161961,-0.188234 z m -0.149549,0.526136 c -2.17e-4,0.0098 -0.0036,0.0193 -0.0035,0.02909 1.35e-4,0.02023 0.03979,0.06924 0.03539,0.04949 -0.0061,-0.02678 -0.0203,-0.05237 -0.03185,-0.0786 z m 0.01677,0.71654 c 0.0011,0.0061 0.0026,0.01208 0.0037,0.01817 0.0096,0.0126 0.03584,0.05167 0.02855,0.03764 -0.0099,-0.0191 -0.02003,-0.0377 -0.03223,-0.05582 z m 0.01849,0.235154 c -0.0032,0.01005 -0.0072,0.01986 -0.0096,0.03032 0.0013,-5.13e-4 0.003,1.36e-4 0.0044,-2.18e-4 0.0026,-0.01014 0.0013,-0.01457 0.0052,-0.03006 z m 3.196171,0.270145 c 0.01342,0.182864 -0.03997,0.360633 -0.09307,0.534121 -0.0083,0.02815 -0.01971,0.05591 -0.02554,0.08467 -0.0089,0.04373 -0.0094,0.04261 0.0048,0.03559 -0.01584,0.07008 -0.02717,0.141398 -0.04776,0.210255 -0.01821,0.061 -0.07443,0.154983 -0.104692,0.209298 -0.0223,0.0395 -0.0482,0.07874 -0.06802,0.120464 0.0074,-0.03438 0.02519,-0.138235 0.01383,-0.104956 -0.02379,0.06952 -0.03283,0.142498 -0.05016,0.213901 -0.02391,0.06586 -0.06519,0.11944 -0.111406,0.170326 l 0.999665,-0.577173 z m -2.359455,2.429049 0.05567,0.09641 0.07781,-0.04492 c -0.04832,-0.01312 -0.09479,-0.02759 -0.133472,-0.05149 z" />
    </clipPath>
  </defs>
  <sodipodi:namedview
     pagecolor="#ffffff"
     bordercolor="#666666"
     borderopacity="1"
     objecttolerance="10"
     gridtolerance="10"
     guidetolerance="10"
     inkscape:pageopacity="0"
     inkscape:pageshadow="2"
     inkscape:window-width="1920"
     inkscape:window-height="1017"
     id="namedview14"
     showgrid="true"
     inkscape:snap-bbox="true"
     inkscape:bbox-nodes="false"
     inkscape:zoom="9.4444449"
     inkscape:cx="24.203405"
     inkscape:cy="27.825409"
     inkscape:window-x="-8"
     inkscape:window-y="-8"
     inkscape:window-maximized="1"
     inkscape:current-layer="svg12"
     inkscape:document-rotation="0"
     inkscape:snap-bbox-midpoints="true"
     inkscape:snap-bbox-edge-midpoints="false">
    <inkscape:grid
       type="xygrid"
       id="grid445" />
  </sodipodi:namedview>
  <g
     style="opacity:1; fill:none; fill-opacity:1; fill-rule:evenodd; stroke:#000000; stroke-width:1.5; stroke-linecap:round;stroke-linejoin:round;stroke-miterlimit:4; stroke-dasharray:none; stroke-opacity:1;"
     id="g10">
    <path
       d="M 22,10 C 32.5,11 38.5,18 38,39 L 15,39 C 15,30 25,32.5 23,18"
       style="fill:#ffffff; stroke:#000000;"
       id="path2"
       clip-path="url(#clipPath399)" />
    <path
       d="M 24,18 C 24.38,20.91 18.45,25.37 16,27 C 13,29 13.18,31.34 11,31 C 9.958,30.06 12.41,27.96 11,28 C 10,28 11.19,29.23 10,30 C 9,30 5.997,31 6,26 C 6,24 12,14 12,14 C 12,14 13.89,12.1 14,10.5 C 13.27,9.506 13.5,8.5 13.5,7.5 C 14.5,6.5 16.5,10 16.5,10 L 18.5,10 C 18.5,10 19.28,8.008 21,7 C 22,7 22,10 22,10"
       style="fill:#ffffff; stroke:#000000;"
       id="path4"
       clip-path="url(#clipPath431)" />
    <path
       d="M 9.5 25.5 A 0.5 0.5 0 1 1 8.5,25.5 A 0.5 0.5 0 1 1 9.5 25.5 z"
       style="fill:#000000; stroke:#000000;"
       id="path6" />
    <path
       d="M 15 15.5 A 0.5 1.5 0 1 1  14,15.5 A 0.5 1.5 0 1 1  15 15.5 z"
       transform="matrix(0.866,0.5,-0.5,0.866,9.693,-5.173)"
       style="fill:#000000; stroke:#000000;"
       id="path8"
       clip-path="url(#clipPath441)" />
  </g>
  <circle
     style="fill:#60ccff;fill-opacity:1"
     id="path449"
     cx="16.5"
     cy="16.5"
     r="2.5" />
  <circle
     style="fill:#000000;stroke-width:3"
     id="path451"
     cx="16"
     cy="17"
     r="1.5" />
  <path
     style="fill:#ffffff;stroke-width:0.0529412"
     d="m 15.817052,38.0882 c 0,-0.607803 0.361881,-1.901854 0.745098,-2.664399 0.499507,-0.993945 0.927562,-1.510438 2.801439,-3.380225 1.54617,-1.542794 2.143716,-2.22672 2.740293,-3.136422 1.281423,-1.954003 1.919052,-4.357908 1.919052,-7.234949 v -1.003794 l 0.233944,-0.466829 c 0.377369,-0.753033 0.464148,-1.068566 0.492392,-1.790359 0.02354,-0.601631 0.01823,-0.645112 -0.100323,-0.820588 -0.322996,-0.478097 -0.982347,-0.480839 -1.299957,-0.0054 -0.098,0.146694 -0.120173,0.252431 -0.120173,0.573019 0,1.07578 -0.798525,2.347751 -2.574705,4.101249 -1.345132,1.327956 -2.880856,2.570759 -4.890001,3.957297 -1.290207,0.890389 -1.864101,1.434535 -2.767286,2.623841 -0.26535,0.349412 -0.585207,0.757121 -0.710793,0.90602 -0.221609,0.262749 -0.663346,0.555496 -0.733042,0.4858 -0.01893,-0.01893 0.066,-0.256448 0.188725,-0.527823 0.355605,-0.786318 0.475419,-1.142358 0.474174,-1.409052 -0.003,-0.638801 -0.480821,-1.070125 -1.184678,-1.069355 -0.416382,4.76e-4 -0.66928,0.09383 -0.912301,0.336856 -0.2696137,0.269613 -0.3364714,0.49366 -0.3368568,1.128841 -1.853e-4,0.308229 -0.022527,0.500322 -0.060949,0.524068 -0.033359,0.02062 -0.3383055,0.04892 -0.677658,0.0629 -0.4797066,0.01976 -0.6850577,0.0056 -0.9228296,-0.06349 C 7.5694526,29.055164 7.1930374,28.590052 6.980553,27.806688 6.8507122,27.328005 6.7417157,26.28604 6.7863143,25.949839 6.9408512,24.784883 8.838413,20.975899 11.795585,15.894708 c 0.53772,-0.923943 0.914936,-1.507837 1.152975,-1.784693 0.903019,-1.050275 1.453326,-1.981348 1.70248,-2.880449 0.16712,-0.603074 0.146342,-0.877954 -0.10062,-1.3311305 C 14.329277,9.4926384 14.227327,9.0761341 14.231161,8.5941473 l 0.0023,-0.2946886 0.321553,0.3441176 c 0.333694,0.3571102 0.825467,1.0226326 1.170422,1.5839477 0.326646,0.531522 0.332476,0.53327 1.779441,0.533501 1.513493,2.44e-4 1.462466,0.01977 1.832981,-0.701622 0.138235,-0.269146 0.361492,-0.6559462 0.496126,-0.8595563 0.271904,-0.4112079 1.033023,-1.2178093 1.106366,-1.1724807 0.10124,0.06257 0.276586,1.2068706 0.27674,1.8059979 5.1e-5,0.1990801 0.03489,0.3872911 0.09265,0.5005671 0.166922,0.327353 0.295576,0.379284 1.267446,0.511607 2.071621,0.282057 3.537839,0.673235 5.051683,1.34776 5.150661,2.294983 8.114989,7.561638 9.176243,16.303219 0.279343,2.300958 0.391999,4.198003 0.436216,7.345589 l 0.03366,2.395588 H 26.546038 15.817052 Z M 9.5055172,26.667364 c 0.4629713,-0.1931 0.7503858,-0.638181 0.7503858,-1.162023 0,-0.726896 -0.5208439,-1.255863 -1.2396637,-1.258996 -0.5225671,-0.0023 -0.9231113,0.229492 -1.1462018,0.663238 -0.3183043,0.618867 -0.061964,1.409957 0.5609364,1.731102 0.2589018,0.13348 0.7870399,0.146593 1.0745433,0.02668 z m 7.5983598,-7.726288 c 1.568695,-0.408592 2.360117,-2.106791 1.654024,-3.549126 -0.310755,-0.63478 -0.854386,-1.098643 -1.528006,-1.303802 -0.47196,-0.143741 -1.18407,-0.118338 -1.641773,0.05857 -1.140055,0.440636 -1.823664,1.712885 -1.548879,2.882584 0.330394,1.406415 1.707258,2.26533 3.064634,1.911778 z"
     id="path459" />
  <path
     style="fill:#ffffff;stroke-width:0.0374351"
     d="m 15.825091,37.953711 c 0.06795,-0.814799 0.338006,-1.762859 0.716853,-2.51661 0.492057,-0.978988 0.94629,-1.533609 2.636805,-3.219551 0.753548,-0.751508 1.506504,-1.519631 1.673237,-1.70694 1.792777,-2.014012 2.697372,-4.012766 3.044958,-6.728011 0.09046,-0.706611 0.154838,-2.088912 0.124264,-2.667972 l -0.02192,-0.415212 0.266673,-0.539382 c 0.368147,-0.744626 0.459349,-1.073472 0.483023,-1.741631 0.01274,-0.359683 0.0043,-0.572168 -0.02649,-0.665424 -0.198359,-0.601034 -1.031238,-0.697147 -1.365428,-0.157568 -0.101673,0.164159 -0.110654,0.207896 -0.118556,0.577337 -0.01016,0.475118 -0.07196,0.723949 -0.298673,1.202537 -0.843963,1.781624 -3.449352,4.276083 -7.109518,6.806813 -1.435253,0.992371 -1.907514,1.448706 -3.030542,2.928343 -0.62789,0.827273 -0.876471,1.065475 -1.18671,1.137163 -0.141509,0.0327 -0.141752,0.03344 0.355466,-1.083779 0.153843,-0.345678 0.249302,-0.681877 0.249302,-0.878026 0,-0.396402 -0.245792,-0.775639 -0.609178,-0.939912 -0.167594,-0.07576 -0.254772,-0.08846 -0.607461,-0.08847 -0.374028,-1.1e-5 -0.428948,0.0091 -0.598961,0.09959 -0.238699,0.127022 -0.4040204,0.300197 -0.5124461,0.536792 -0.075549,0.164855 -0.08599,0.247441 -0.087555,0.692549 -0.00112,0.318862 -0.018293,0.535113 -0.046528,0.585957 -0.039749,0.07157 -0.089273,0.08362 -0.4430384,0.10773 -0.5437744,0.03706 -1.0783118,0.0039 -1.2982584,-0.08053 C 7.228433,28.897775 6.8062612,27.897786 6.783589,26.284088 6.776839,25.803617 6.778739,25.79155 6.9331096,25.334653 c 0.4868512,-1.440951 1.7059638,-3.887967 3.7233034,-7.473455 0.98078,-1.743174 1.942554,-3.368464 2.082326,-3.518896 0.837071,-0.900915 1.583062,-2.081034 1.850354,-2.927161 0.232567,-0.736204 0.227313,-1.029883 -0.02616,-1.4622411 C 14.32639,9.5494394 14.233018,9.1744489 14.247268,8.6851937 l 0.01077,-0.3699322 0.238024,0.2433279 c 0.301671,0.3083924 0.825435,1.005756 1.170214,1.5580786 0.146749,0.235086 0.312266,0.459792 0.367815,0.499346 0.195257,0.139035 0.388925,0.15678 1.576111,0.144408 1.44034,-0.01501 1.359811,0.01929 1.737894,-0.740186 0.224964,-0.4518965 0.47366,-0.8454276 0.76993,-1.2183186 0.206884,-0.2603871 0.758047,-0.8048539 0.814753,-0.8048539 0.03626,0 0.160405,0.4721216 0.211644,0.8048539 0.01268,0.082357 0.04482,0.4477387 0.07141,0.811959 0.04478,0.6133826 0.05573,0.6733736 0.148445,0.8134736 0.158331,0.239254 0.307631,0.292272 1.120394,0.39786 1.622276,0.210755 2.743187,0.462939 3.995916,0.899008 2.814491,0.979708 5.031291,2.710638 6.677921,5.214279 0.458163,0.696621 0.634408,1.00238 1.008488,1.749578 2.093769,4.182158 3.092427,10.037336 3.094524,18.143347 l 3.66e-4,1.413174 H 26.53136 15.800832 Z M 9.4610967,26.675912 c 0.2863242,-0.107127 0.5206507,-0.326945 0.6683533,-0.626972 0.108178,-0.219741 0.12304,-0.286293 0.12304,-0.550984 0,-0.264788 -0.01485,-0.33121 -0.123237,-0.551383 -0.1340283,-0.272251 -0.3255478,-0.46239 -0.6039182,-0.599566 -0.1413256,-0.06964 -0.2334935,-0.08441 -0.5269199,-0.08441 -0.3045813,0 -0.3824435,0.01343 -0.5423979,0.09359 -0.2542185,0.127388 -0.4919969,0.372734 -0.6096392,0.62904 -0.1315221,0.286546 -0.1376574,0.720906 -0.014087,0.997324 0.1538298,0.344107 0.4109052,0.589926 0.7454515,0.712813 0.2163358,0.07946 0.6441563,0.07004 0.8833545,-0.01945 z m 7.6232923,-7.73091 c 0.816642,-0.190842 1.517172,-0.832332 1.796942,-1.645496 0.445885,-1.295988 -0.252221,-2.71078 -1.567924,-3.177576 -0.297825,-0.105664 -0.359988,-0.114355 -0.809262,-0.113138 -0.427078,0.0012 -0.524301,0.01378 -0.794166,0.103114 -1.067246,0.353293 -1.790492,1.423807 -1.717465,2.542108 0.07005,1.072729 0.833171,2.00316 1.864586,2.27339 0.337496,0.08842 0.890297,0.09635 1.227289,0.0176 z"
     id="path461" />
</svg>
