<?xml version="1.0" encoding="UTF-8" standalone="no"?>
<svg
   xmlns:dc="http://purl.org/dc/elements/1.1/"
   xmlns:cc="http://creativecommons.org/ns#"
   xmlns:rdf="http://www.w3.org/1999/02/22-rdf-syntax-ns#"
   xmlns:svg="http://www.w3.org/2000/svg"
   xmlns="http://www.w3.org/2000/svg"
   xmlns:sodipodi="http://sodipodi.sourceforge.net/DTD/sodipodi-0.dtd"
   xmlns:inkscape="http://www.inkscape.org/namespaces/inkscape"
   version="1.1"
   width="45"
   height="45"
   id="svg22"
   sodipodi:docname="wQ.svg"
   inkscape:version="1.0.1 (3bc2e813f5, 2020-09-07)">
  <metadata
     id="metadata28">
    <rdf:RDF>
      <cc:Work
         rdf:about="">
        <dc:format>image/svg+xml</dc:format>
        <dc:type
           rdf:resource="http://purl.org/dc/dcmitype/StillImage" />
      </cc:Work>
    </rdf:RDF>
  </metadata>
  <defs
     id="defs26" />
  <sodipodi:namedview
     pagecolor="#ffffff"
     bordercolor="#666666"
     borderopacity="1"
     objecttolerance="10"
     gridtolerance="10"
     guidetolerance="10"
     inkscape:pageopacity="0"
     inkscape:pageshadow="2"
     inkscape:window-width="1920"
     inkscape:window-height="1017"
     id="namedview24"
     showgrid="true"
     inkscape:snap-bbox="true"
     inkscape:bbox-nodes="true"
     inkscape:zoom="9.4444445"
     inkscape:cx="29.898517"
     inkscape:cy="32.295451"
     inkscape:window-x="-8"
     inkscape:window-y="-8"
     inkscape:window-maximized="1"
     inkscape:current-layer="svg22"
     inkscape:document-rotation="0">
    <inkscape:grid
       type="xygrid"
       id="grid34" />
  </sodipodi:namedview>
  <g
     style="opacity:1; fill:#ffffff; fill-opacity:1; fill-rule:evenodd; stroke:#000000; stroke-width:1.5; stroke-linecap:round;stroke-linejoin:round;stroke-miterlimit:4; stroke-dasharray:none; stroke-opacity:1;"
     id="g20">
    <path
       d="M 9 13 A 2 2 0 1 1  5,13 A 2 2 0 1 1  9 13 z"
       transform="translate(-1,-1)"
       id="path2" />
    <path
       d="M 9 13 A 2 2 0 1 1  5,13 A 2 2 0 1 1  9 13 z"
       transform="translate(15.5,-5.5)"
       id="path4" />
    <path
       d="M 9 13 A 2 2 0 1 1  5,13 A 2 2 0 1 1  9 13 z"
       transform="translate(32,-1)"
       id="path6" />
    <path
       d="M 9 13 A 2 2 0 1 1  5,13 A 2 2 0 1 1  9 13 z"
       transform="translate(7,-4.5)"
       id="path8" />
    <path
       d="M 9 13 A 2 2 0 1 1  5,13 A 2 2 0 1 1  9 13 z"
       transform="translate(24,-4)"
       id="path10" />
    <path
       d="M 9,26 C 17.5,24.5 30,24.5 36,26 L 38,14 L 31,25 L 31,11 L 25.5,24.5 L 22.5,9.5 L 19.5,24.5 L 14,10.5 L 14,25 L 7,14 L 9,26 z "
       style="stroke-linecap:butt;"
       id="path12" />
    <path
       d="M 9,26 C 9,28 10.5,28 11.5,30 C 12.5,31.5 12.5,31 12,33.5 C 10.5,34.5 10.5,36 10.5,36 C 9,37.5 11,38.5 11,38.5 C 17.5,39.5 27.5,39.5 34,38.5 C 34,38.5 35.5,37.5 34,36 C 34,36 34.5,34.5 33,33.5 C 32.5,31 32.5,31.5 33.5,30 C 34.5,28 36,28 36,26 C 27.5,24.5 17.5,24.5 9,26 z "
       style="stroke-linecap:butt;"
       id="path14" />
    <path
       d="M 11.5,30 C 15,29 30,29 33.5,30"
       style="fill:none;"
       id="path16" />
    <path
       d="M 12,33.5 C 18,32.5 27,32.5 33,33.5"
       style="fill:none;"
       id="path18" />
  </g>
  <rect
     style="fill:#000000"
     id="rect36"
     width="3"
     height="1"
     x="16"
     y="27" />
  <rect
     style="fill:#000000"
     id="rect40"
     width="3"
     height="1"
     x="26"
     y="27" />
  <rect
     style="fill:#000000"
     id="rect46"
     width="9"
     height="1"
     x="18"
     y="36" />
  <path
     sodipodi:type="star"
     style="fill:#000000"
     id="path53"
     sodipodi:sides="3"
     sodipodi:cx="19.133975"
     sodipodi:cy="27.5"
     sodipodi:r1="1"
     sodipodi:r2="0.5"
     sodipodi:arg1="-1.5707963"
     sodipodi:arg2="-0.52359878"
     inkscape:flatsided="false"
     inkscape:rounded="0"
     inkscape:randomized="0"
     d="m 19.133974,26.5 0.433013,0.75 0.433012,0.75 -0.866025,0 -0.866025,0 0.433012,-0.75 z"
     inkscape:transform-center-y="-0.25" />
  <path
     sodipodi:type="star"
     style="fill:#000000"
     id="path53-3"
     sodipodi:sides="3"
     sodipodi:cx="25.866025"
     sodipodi:cy="27.5"
     sodipodi:r1="1"
     sodipodi:r2="0.5"
     sodipodi:arg1="-1.5707963"
     sodipodi:arg2="-0.52359878"
     inkscape:flatsided="false"
     inkscape:rounded="0"
     inkscape:randomized="0"
     d="m 25.866026,26.5 0.433013,0.75 0.433012,0.75 -0.866025,0 -0.866025,0 0.433012,-0.75 z"
     inkscape:transform-center-y="-0.25" />
</svg>
