<?xml version="1.0" encoding="UTF-8" standalone="no"?>
<svg
   xmlns:dc="http://purl.org/dc/elements/1.1/"
   xmlns:cc="http://creativecommons.org/ns#"
   xmlns:rdf="http://www.w3.org/1999/02/22-rdf-syntax-ns#"
   xmlns:svg="http://www.w3.org/2000/svg"
   xmlns="http://www.w3.org/2000/svg"
   xmlns:sodipodi="http://sodipodi.sourceforge.net/DTD/sodipodi-0.dtd"
   xmlns:inkscape="http://www.inkscape.org/namespaces/inkscape"
   version="1.1"
   width="45"
   height="45"
   id="svg18"
   sodipodi:docname="wR.svg"
   inkscape:version="1.0.1 (3bc2e813f5, 2020-09-07)">
  <metadata
     id="metadata24">
    <rdf:RDF>
      <cc:Work
         rdf:about="">
        <dc:format>image/svg+xml</dc:format>
        <dc:type
           rdf:resource="http://purl.org/dc/dcmitype/StillImage" />
      </cc:Work>
    </rdf:RDF>
  </metadata>
  <defs
     id="defs22" />
  <sodipodi:namedview
     pagecolor="#ffffff"
     bordercolor="#666666"
     borderopacity="1"
     objecttolerance="10"
     gridtolerance="10"
     guidetolerance="10"
     inkscape:pageopacity="0"
     inkscape:pageshadow="2"
     inkscape:window-width="1920"
     inkscape:window-height="1017"
     id="namedview20"
     showgrid="true"
     inkscape:snap-bbox="true"
     inkscape:bbox-nodes="true"
     inkscape:zoom="13.356461"
     inkscape:cx="44.496048"
     inkscape:cy="29.727075"
     inkscape:window-x="-8"
     inkscape:window-y="-8"
     inkscape:window-maximized="1"
     inkscape:current-layer="svg18">
    <inkscape:grid
       type="xygrid"
       id="grid26" />
  </sodipodi:namedview>
  <g
     style="opacity:1; fill:#ffffff; fill-opacity:1; fill-rule:evenodd; stroke:#000000; stroke-width:1.5; stroke-linecap:round;stroke-linejoin:round;stroke-miterlimit:4; stroke-dasharray:none; stroke-opacity:1;"
     id="g16">
    <path
       d="M 9,39 L 36,39 L 36,36 L 9,36 L 9,39 z "
       style="stroke-linecap:butt;"
       id="path2" />
    <path
       d="M 12,36 L 12,32 L 33,32 L 33,36 L 12,36 z "
       style="stroke-linecap:butt;"
       id="path4" />
    <path
       d="M 11,14 L 11,9 L 15,9 L 15,11 L 20,11 L 20,9 L 25,9 L 25,11 L 30,11 L 30,9 L 34,9 L 34,14"
       style="stroke-linecap:butt;"
       id="path6" />
    <path
       d="M 34,14 L 31,17 L 14,17 L 11,14"
       id="path8" />
    <path
       d="M 31,17 L 31,29.5 L 14,29.5 L 14,17"
       style="stroke-linecap:butt; stroke-linejoin:miter;"
       id="path10" />
    <path
       d="M 31,29.5 L 32.5,32 L 12.5,32 L 14,29.5"
       id="path12" />
    <path
       d="M 11,14 L 34,14"
       style="fill:none; stroke:#000000; stroke-linejoin:miter;"
       id="path14" />
  </g>
  <rect
     style="fill:#000000"
     id="rect28"
     width="2"
     height="2"
     x="17"
     y="19" />
  <rect
     style="fill:#000000"
     id="rect30"
     width="2"
     height="2"
     x="26"
     y="19" />
  <rect
     style="fill:#000000;stroke-width:1"
     id="rect32"
     width="1"
     height="2"
     x="18"
     y="24" />
  <rect
     style="fill:#000000"
     id="rect34"
     width="1"
     height="2"
     x="26"
     y="24" />
  <rect
     style="fill:#000000"
     id="rect36"
     width="9"
     height="1"
     x="18"
     y="25" />
</svg>
